<svg width="64" height="64" viewBox="0 0 64 64" fill="none" xmlns="http://www.w3.org/2000/svg">
<g clip-path="url(#clip0_1_2)">
<path d="M32.8655 0.340682V1.23884C34.9666 1.23884 35.2137 1.45563 35.2137 2.9732V9.81777C34.5649 8.91961 33.2363 7.83563 31.3515 7.83563C27.7673 7.83563 24.6775 10.8708 24.6775 14.835C24.6775 18.7683 27.6128 21.8035 31.0116 21.8035C33.3599 21.8035 34.7194 20.2549 35.1519 19.6665V21.8035L39.5086 21.4938V20.5956C37.4075 20.5956 37.1603 20.3788 37.1603 18.8613V0L32.8655 0.340682ZM35.1519 17.8702C35.1519 18.4277 35.1519 18.5206 34.7194 19.2019C33.9778 20.2859 32.711 21.1841 31.1661 21.1841C30.3628 21.1841 27.0258 20.8744 27.0258 14.866C27.0258 12.6361 27.3966 11.3973 28.0763 10.3752C28.6943 9.41514 29.9302 8.45505 31.4751 8.45505C33.3908 8.45505 34.4722 9.84874 34.7812 10.3443C35.1519 10.8708 35.1519 10.9327 35.1519 11.4902V17.8702Z" fill="black"/>
<path d="M49 34.0837H15V35.3225H49V34.0837Z" fill="black"/>
<path d="M24.2694 42.5372V43.4354C26.3705 43.4354 26.6176 43.6522 26.6176 45.1697V52.0143C25.9688 51.1161 24.6402 50.0321 22.7554 50.0321C19.1712 50.0321 16.0814 53.0673 16.0814 57.0316C16.0814 60.9649 19.0167 64 22.4155 64C24.7638 64 26.1233 62.4515 26.5558 61.863V64L30.9125 63.6903V62.7921C28.8114 62.7921 28.5642 62.5753 28.5642 61.0578V42.1965L24.2694 42.5372ZM26.5558 60.0667C26.5558 60.6242 26.5558 60.7171 26.1233 61.3985C25.3817 62.4824 24.1149 63.3806 22.57 63.3806C21.7667 63.3806 18.4297 63.0709 18.4297 57.0625C18.4297 54.8326 18.8004 53.5938 19.4802 52.5718C20.0982 51.6117 21.3341 50.6516 22.879 50.6516C24.7947 50.6516 25.8761 52.0453 26.1851 52.5408C26.5558 53.0673 26.5558 53.1292 26.5558 53.6867V60.0667Z" fill="black"/>
<path d="M46.4534 51.0542C45.4647 51.24 45.0939 51.9833 45.0939 52.5718C45.0939 53.3151 45.681 53.5628 46.1136 53.5628C47.0405 53.5628 47.6893 52.7576 47.6893 51.9214C47.6893 50.6206 46.2062 50.0322 44.9085 50.0322C43.0238 50.0322 41.9732 51.8904 41.6951 52.4789C40.9845 50.156 39.0688 50.0322 38.5126 50.0322C35.3611 50.0322 33.6926 54.0893 33.6926 54.7707C33.6926 54.8946 33.8162 55.0494 34.0324 55.0494C34.2796 55.0494 34.3414 54.8636 34.4032 54.7397C35.4537 51.302 37.5239 50.6516 38.42 50.6516C39.8104 50.6516 40.0884 51.9523 40.0884 52.6956C40.0884 53.377 39.9031 54.0893 39.5323 55.5759L38.4817 59.8189C38.0183 61.6772 37.1222 63.3806 35.4846 63.3806C35.3302 63.3806 34.5577 63.3806 33.9088 62.978C35.0212 62.7612 35.2684 61.8321 35.2684 61.4604C35.2684 60.841 34.8049 60.4693 34.2178 60.4693C33.4763 60.4693 32.6729 61.1197 32.6729 62.1108C32.6729 63.4116 34.1251 64 35.4537 64C36.9368 64 37.9874 62.8231 38.6362 61.5533C39.1306 63.3806 40.6755 64 41.8187 64C44.9703 64 46.6388 59.9428 46.6388 59.2615C46.6388 59.1066 46.5152 58.9827 46.3298 58.9827C46.0518 58.9827 46.0209 59.1376 45.9282 59.3854C45.0939 62.1108 43.3018 63.3806 41.9114 63.3806C40.83 63.3806 40.2429 62.5754 40.2429 61.3055C40.2429 60.6242 40.3665 60.1287 40.8609 58.0846L41.9423 53.8725C42.4058 52.0143 43.4563 50.6516 44.8776 50.6516C44.9394 50.6516 45.8046 50.6516 46.4534 51.0542Z" fill="black"/>
</g>
<defs>
<clipPath id="clip0_1_2">
<rect width="34" height="64" fill="white" transform="translate(15)"/>
</clipPath>
</defs>
</svg>
